<?xml version="1.0" encoding="utf-8" standalone="no"?>
<!DOCTYPE svg PUBLIC "-//W3C//DTD SVG 1.1//EN"
  "http://www.w3.org/Graphics/SVG/1.1/DTD/svg11.dtd">
<svg xmlns:xlink="http://www.w3.org/1999/xlink" width="999.568217pt" height="566.272312pt" viewBox="0 0 999.568217 566.272312" xmlns="http://www.w3.org/2000/svg" version="1.1">
 <metadata>
  <rdf:RDF xmlns:dc="http://purl.org/dc/elements/1.1/" xmlns:cc="http://creativecommons.org/ns#" xmlns:rdf="http://www.w3.org/1999/02/22-rdf-syntax-ns#">
   <cc:Work>
    <dc:type rdf:resource="http://purl.org/dc/dcmitype/StillImage"/>
    <dc:date>2025-09-13T19:53:39.951755</dc:date>
    <dc:format>image/svg+xml</dc:format>
    <dc:creator>
     <cc:Agent>
      <dc:title>Matplotlib v3.10.6, https://matplotlib.org/</dc:title>
     </cc:Agent>
    </dc:creator>
   </cc:Work>
  </rdf:RDF>
 </metadata>
 <defs>
  <style type="text/css">*{stroke-linejoin: round; stroke-linecap: butt}</style>
 </defs>
 <g id="figure_1">
  <g id="patch_1">
   <path d="M 0 566.272312 
L 999.568217 566.272312 
L 999.568217 0 
L 0 0 
z
" style="fill: #ffffff"/>
  </g>
  <g id="axes_1">
   <g id="patch_2">
    <path d="M 39.784375 522.587625 
L 992.368217 522.587625 
L 992.368217 34.803375 
L 39.784375 34.803375 
z
" style="fill: #ffffff"/>
   </g>
   <g id="matplotlib.axis_1">
    <g id="xtick_1">
     <g id="line2d_1">
      <path d="M 131.193936 522.587625 
L 131.193936 34.803375 
" clip-path="url(#pa4d2562dcf)" style="fill: none; stroke: #cccccc; stroke-opacity: 0.3; stroke-width: 0.8; stroke-linecap: round"/>
     </g>
     <g id="line2d_2"/>
     <g id="text_1">
      <!-- prime -->
      <g style="fill: #262626" transform="translate(118.692373 533.245437) scale(0.1 -0.1)">
       <defs>
        <path id="ArialMT-70" d="M 422 -1272 
L 422 3319 
L 934 3319 
L 934 2888 
Q 1116 3141 1344 3267 
Q 1572 3394 1897 3394 
Q 2322 3394 2647 3175 
Q 2972 2956 3137 2557 
Q 3303 2159 3303 1684 
Q 3303 1175 3120 767 
Q 2938 359 2589 142 
Q 2241 -75 1856 -75 
Q 1575 -75 1351 44 
Q 1128 163 984 344 
L 984 -1272 
L 422 -1272 
z
M 931 1641 
Q 931 1000 1190 694 
Q 1450 388 1819 388 
Q 2194 388 2461 705 
Q 2728 1022 2728 1688 
Q 2728 2322 2467 2637 
Q 2206 2953 1844 2953 
Q 1484 2953 1207 2617 
Q 931 2281 931 1641 
z
" transform="scale(0.015625)"/>
        <path id="ArialMT-72" d="M 416 0 
L 416 3319 
L 922 3319 
L 922 2816 
Q 1116 3169 1280 3281 
Q 1444 3394 1641 3394 
Q 1925 3394 2219 3213 
L 2025 2691 
Q 1819 2813 1613 2813 
Q 1428 2813 1281 2702 
Q 1134 2591 1072 2394 
Q 978 2094 978 1738 
L 978 0 
L 416 0 
z
" transform="scale(0.015625)"/>
        <path id="ArialMT-69" d="M 425 3934 
L 425 4581 
L 988 4581 
L 988 3934 
L 425 3934 
z
M 425 0 
L 425 3319 
L 988 3319 
L 988 0 
L 425 0 
z
" transform="scale(0.015625)"/>
        <path id="ArialMT-6d" d="M 422 0 
L 422 3319 
L 925 3319 
L 925 2853 
Q 1081 3097 1340 3245 
Q 1600 3394 1931 3394 
Q 2300 3394 2536 3241 
Q 2772 3088 2869 2813 
Q 3263 3394 3894 3394 
Q 4388 3394 4653 3120 
Q 4919 2847 4919 2278 
L 4919 0 
L 4359 0 
L 4359 2091 
Q 4359 2428 4304 2576 
Q 4250 2725 4106 2815 
Q 3963 2906 3769 2906 
Q 3419 2906 3187 2673 
Q 2956 2441 2956 1928 
L 2956 0 
L 2394 0 
L 2394 2156 
Q 2394 2531 2256 2718 
Q 2119 2906 1806 2906 
Q 1569 2906 1367 2781 
Q 1166 2656 1075 2415 
Q 984 2175 984 1722 
L 984 0 
L 422 0 
z
" transform="scale(0.015625)"/>
        <path id="ArialMT-65" d="M 2694 1069 
L 3275 997 
Q 3138 488 2766 206 
Q 2394 -75 1816 -75 
Q 1088 -75 661 373 
Q 234 822 234 1631 
Q 234 2469 665 2931 
Q 1097 3394 1784 3394 
Q 2450 3394 2872 2941 
Q 3294 2488 3294 1666 
Q 3294 1616 3291 1516 
L 816 1516 
Q 847 969 1125 678 
Q 1403 388 1819 388 
Q 2128 388 2347 550 
Q 2566 713 2694 1069 
z
M 847 1978 
L 2700 1978 
Q 2663 2397 2488 2606 
Q 2219 2931 1791 2931 
Q 1403 2931 1139 2672 
Q 875 2413 847 1978 
z
" transform="scale(0.015625)"/>
       </defs>
       <use xlink:href="#ArialMT-70"/>
       <use xlink:href="#ArialMT-72" transform="translate(55.615234 0)"/>
       <use xlink:href="#ArialMT-69" transform="translate(88.916016 0)"/>
       <use xlink:href="#ArialMT-6d" transform="translate(111.132812 0)"/>
       <use xlink:href="#ArialMT-65" transform="translate(194.433594 0)"/>
      </g>
      <!-- count -->
      <g style="fill: #262626" transform="translate(118.963467 543.822312) scale(0.1 -0.1)">
       <defs>
        <path id="ArialMT-63" d="M 2588 1216 
L 3141 1144 
Q 3050 572 2676 248 
Q 2303 -75 1759 -75 
Q 1078 -75 664 370 
Q 250 816 250 1647 
Q 250 2184 428 2587 
Q 606 2991 970 3192 
Q 1334 3394 1763 3394 
Q 2303 3394 2647 3120 
Q 2991 2847 3088 2344 
L 2541 2259 
Q 2463 2594 2264 2762 
Q 2066 2931 1784 2931 
Q 1359 2931 1093 2626 
Q 828 2322 828 1663 
Q 828 994 1084 691 
Q 1341 388 1753 388 
Q 2084 388 2306 591 
Q 2528 794 2588 1216 
z
" transform="scale(0.015625)"/>
        <path id="ArialMT-6f" d="M 213 1659 
Q 213 2581 725 3025 
Q 1153 3394 1769 3394 
Q 2453 3394 2887 2945 
Q 3322 2497 3322 1706 
Q 3322 1066 3130 698 
Q 2938 331 2570 128 
Q 2203 -75 1769 -75 
Q 1072 -75 642 372 
Q 213 819 213 1659 
z
M 791 1659 
Q 791 1022 1069 705 
Q 1347 388 1769 388 
Q 2188 388 2466 706 
Q 2744 1025 2744 1678 
Q 2744 2294 2464 2611 
Q 2184 2928 1769 2928 
Q 1347 2928 1069 2612 
Q 791 2297 791 1659 
z
" transform="scale(0.015625)"/>
        <path id="ArialMT-75" d="M 2597 0 
L 2597 488 
Q 2209 -75 1544 -75 
Q 1250 -75 995 37 
Q 741 150 617 320 
Q 494 491 444 738 
Q 409 903 409 1263 
L 409 3319 
L 972 3319 
L 972 1478 
Q 972 1038 1006 884 
Q 1059 663 1231 536 
Q 1403 409 1656 409 
Q 1909 409 2131 539 
Q 2353 669 2445 892 
Q 2538 1116 2538 1541 
L 2538 3319 
L 3100 3319 
L 3100 0 
L 2597 0 
z
" transform="scale(0.015625)"/>
        <path id="ArialMT-6e" d="M 422 0 
L 422 3319 
L 928 3319 
L 928 2847 
Q 1294 3394 1984 3394 
Q 2284 3394 2536 3286 
Q 2788 3178 2913 3003 
Q 3038 2828 3088 2588 
Q 3119 2431 3119 2041 
L 3119 0 
L 2556 0 
L 2556 2019 
Q 2556 2363 2490 2533 
Q 2425 2703 2258 2804 
Q 2091 2906 1866 2906 
Q 1506 2906 1245 2678 
Q 984 2450 984 1813 
L 984 0 
L 422 0 
z
" transform="scale(0.015625)"/>
        <path id="ArialMT-74" d="M 1650 503 
L 1731 6 
Q 1494 -44 1306 -44 
Q 1000 -44 831 53 
Q 663 150 594 308 
Q 525 466 525 972 
L 525 2881 
L 113 2881 
L 113 3319 
L 525 3319 
L 525 4141 
L 1084 4478 
L 1084 3319 
L 1650 3319 
L 1650 2881 
L 1084 2881 
L 1084 941 
Q 1084 700 1114 631 
Q 1144 563 1211 522 
Q 1278 481 1403 481 
Q 1497 481 1650 503 
z
" transform="scale(0.015625)"/>
       </defs>
       <use xlink:href="#ArialMT-63"/>
       <use xlink:href="#ArialMT-6f" transform="translate(50 0)"/>
       <use xlink:href="#ArialMT-75" transform="translate(105.615234 0)"/>
       <use xlink:href="#ArialMT-6e" transform="translate(161.230469 0)"/>
       <use xlink:href="#ArialMT-74" transform="translate(216.845703 0)"/>
      </g>
     </g>
    </g>
    <g id="xtick_2">
     <g id="line2d_3">
      <path d="M 259.488056 522.587625 
L 259.488056 34.803375 
" clip-path="url(#pa4d2562dcf)" style="fill: none; stroke: #cccccc; stroke-opacity: 0.3; stroke-width: 0.8; stroke-linecap: round"/>
     </g>
     <g id="line2d_4"/>
     <g id="text_2">
      <!-- string -->
      <g style="fill: #262626" transform="translate(247.262274 533.245437) scale(0.1 -0.1)">
       <defs>
        <path id="ArialMT-73" d="M 197 991 
L 753 1078 
Q 800 744 1014 566 
Q 1228 388 1613 388 
Q 2000 388 2187 545 
Q 2375 703 2375 916 
Q 2375 1106 2209 1216 
Q 2094 1291 1634 1406 
Q 1016 1563 777 1677 
Q 538 1791 414 1992 
Q 291 2194 291 2438 
Q 291 2659 392 2848 
Q 494 3038 669 3163 
Q 800 3259 1026 3326 
Q 1253 3394 1513 3394 
Q 1903 3394 2198 3281 
Q 2494 3169 2634 2976 
Q 2775 2784 2828 2463 
L 2278 2388 
Q 2241 2644 2061 2787 
Q 1881 2931 1553 2931 
Q 1166 2931 1000 2803 
Q 834 2675 834 2503 
Q 834 2394 903 2306 
Q 972 2216 1119 2156 
Q 1203 2125 1616 2013 
Q 2213 1853 2448 1751 
Q 2684 1650 2818 1456 
Q 2953 1263 2953 975 
Q 2953 694 2789 445 
Q 2625 197 2315 61 
Q 2006 -75 1616 -75 
Q 969 -75 630 194 
Q 291 463 197 991 
z
" transform="scale(0.015625)"/>
        <path id="ArialMT-67" d="M 319 -275 
L 866 -356 
Q 900 -609 1056 -725 
Q 1266 -881 1628 -881 
Q 2019 -881 2231 -725 
Q 2444 -569 2519 -288 
Q 2563 -116 2559 434 
Q 2191 0 1641 0 
Q 956 0 581 494 
Q 206 988 206 1678 
Q 206 2153 378 2554 
Q 550 2956 876 3175 
Q 1203 3394 1644 3394 
Q 2231 3394 2613 2919 
L 2613 3319 
L 3131 3319 
L 3131 450 
Q 3131 -325 2973 -648 
Q 2816 -972 2473 -1159 
Q 2131 -1347 1631 -1347 
Q 1038 -1347 672 -1080 
Q 306 -813 319 -275 
z
M 784 1719 
Q 784 1066 1043 766 
Q 1303 466 1694 466 
Q 2081 466 2343 764 
Q 2606 1063 2606 1700 
Q 2606 2309 2336 2618 
Q 2066 2928 1684 2928 
Q 1309 2928 1046 2623 
Q 784 2319 784 1719 
z
" transform="scale(0.015625)"/>
       </defs>
       <use xlink:href="#ArialMT-73"/>
       <use xlink:href="#ArialMT-74" transform="translate(50 0)"/>
       <use xlink:href="#ArialMT-72" transform="translate(77.783203 0)"/>
       <use xlink:href="#ArialMT-69" transform="translate(111.083984 0)"/>
       <use xlink:href="#ArialMT-6e" transform="translate(133.300781 0)"/>
       <use xlink:href="#ArialMT-67" transform="translate(188.916016 0)"/>
      </g>
      <!-- concat -->
      <g style="fill: #262626" transform="translate(244.757587 543.9395) scale(0.1 -0.1)">
       <defs>
        <path id="ArialMT-61" d="M 2588 409 
Q 2275 144 1986 34 
Q 1697 -75 1366 -75 
Q 819 -75 525 192 
Q 231 459 231 875 
Q 231 1119 342 1320 
Q 453 1522 633 1644 
Q 813 1766 1038 1828 
Q 1203 1872 1538 1913 
Q 2219 1994 2541 2106 
Q 2544 2222 2544 2253 
Q 2544 2597 2384 2738 
Q 2169 2928 1744 2928 
Q 1347 2928 1158 2789 
Q 969 2650 878 2297 
L 328 2372 
Q 403 2725 575 2942 
Q 747 3159 1072 3276 
Q 1397 3394 1825 3394 
Q 2250 3394 2515 3294 
Q 2781 3194 2906 3042 
Q 3031 2891 3081 2659 
Q 3109 2516 3109 2141 
L 3109 1391 
Q 3109 606 3145 398 
Q 3181 191 3288 0 
L 2700 0 
Q 2613 175 2588 409 
z
M 2541 1666 
Q 2234 1541 1622 1453 
Q 1275 1403 1131 1340 
Q 988 1278 909 1158 
Q 831 1038 831 891 
Q 831 666 1001 516 
Q 1172 366 1500 366 
Q 1825 366 2078 508 
Q 2331 650 2450 897 
Q 2541 1088 2541 1459 
L 2541 1666 
z
" transform="scale(0.015625)"/>
       </defs>
       <use xlink:href="#ArialMT-63"/>
       <use xlink:href="#ArialMT-6f" transform="translate(50 0)"/>
       <use xlink:href="#ArialMT-6e" transform="translate(105.615234 0)"/>
       <use xlink:href="#ArialMT-63" transform="translate(161.230469 0)"/>
       <use xlink:href="#ArialMT-61" transform="translate(211.230469 0)"/>
       <use xlink:href="#ArialMT-74" transform="translate(266.845703 0)"/>
      </g>
     </g>
    </g>
    <g id="xtick_3">
     <g id="line2d_5">
      <path d="M 387.782176 522.587625 
L 387.782176 34.803375 
" clip-path="url(#pa4d2562dcf)" style="fill: none; stroke: #cccccc; stroke-opacity: 0.3; stroke-width: 0.8; stroke-linecap: round"/>
     </g>
     <g id="line2d_6"/>
     <g id="text_3">
      <!-- math -->
      <g style="fill: #262626" transform="translate(376.667332 533.245437) scale(0.1 -0.1)">
       <defs>
        <path id="ArialMT-68" d="M 422 0 
L 422 4581 
L 984 4581 
L 984 2938 
Q 1378 3394 1978 3394 
Q 2347 3394 2619 3248 
Q 2891 3103 3008 2847 
Q 3125 2591 3125 2103 
L 3125 0 
L 2563 0 
L 2563 2103 
Q 2563 2525 2380 2717 
Q 2197 2909 1863 2909 
Q 1613 2909 1392 2779 
Q 1172 2650 1078 2428 
Q 984 2206 984 1816 
L 984 0 
L 422 0 
z
" transform="scale(0.015625)"/>
       </defs>
       <use xlink:href="#ArialMT-6d"/>
       <use xlink:href="#ArialMT-61" transform="translate(83.300781 0)"/>
       <use xlink:href="#ArialMT-74" transform="translate(138.916016 0)"/>
       <use xlink:href="#ArialMT-68" transform="translate(166.699219 0)"/>
      </g>
      <!-- functions -->
      <g style="fill: #262626" transform="translate(367.771238 543.822312) scale(0.1 -0.1)">
       <defs>
        <path id="ArialMT-66" d="M 556 0 
L 556 2881 
L 59 2881 
L 59 3319 
L 556 3319 
L 556 3672 
Q 556 4006 616 4169 
Q 697 4388 901 4523 
Q 1106 4659 1475 4659 
Q 1713 4659 2000 4603 
L 1916 4113 
Q 1741 4144 1584 4144 
Q 1328 4144 1222 4034 
Q 1116 3925 1116 3625 
L 1116 3319 
L 1763 3319 
L 1763 2881 
L 1116 2881 
L 1116 0 
L 556 0 
z
" transform="scale(0.015625)"/>
       </defs>
       <use xlink:href="#ArialMT-66"/>
       <use xlink:href="#ArialMT-75" transform="translate(27.783203 0)"/>
       <use xlink:href="#ArialMT-6e" transform="translate(83.398438 0)"/>
       <use xlink:href="#ArialMT-63" transform="translate(139.013672 0)"/>
       <use xlink:href="#ArialMT-74" transform="translate(189.013672 0)"/>
       <use xlink:href="#ArialMT-69" transform="translate(216.796875 0)"/>
       <use xlink:href="#ArialMT-6f" transform="translate(239.013672 0)"/>
       <use xlink:href="#ArialMT-6e" transform="translate(294.628906 0)"/>
       <use xlink:href="#ArialMT-73" transform="translate(350.244141 0)"/>
      </g>
     </g>
    </g>
    <g id="xtick_4">
     <g id="line2d_7">
      <path d="M 516.076296 522.587625 
L 516.076296 34.803375 
" clip-path="url(#pa4d2562dcf)" style="fill: none; stroke: #cccccc; stroke-opacity: 0.3; stroke-width: 0.8; stroke-linecap: round"/>
     </g>
     <g id="line2d_8"/>
     <g id="text_4">
      <!-- string -->
      <g style="fill: #262626" transform="translate(503.850515 533.245437) scale(0.1 -0.1)">
       <use xlink:href="#ArialMT-73"/>
       <use xlink:href="#ArialMT-74" transform="translate(50 0)"/>
       <use xlink:href="#ArialMT-72" transform="translate(77.783203 0)"/>
       <use xlink:href="#ArialMT-69" transform="translate(111.083984 0)"/>
       <use xlink:href="#ArialMT-6e" transform="translate(133.300781 0)"/>
       <use xlink:href="#ArialMT-67" transform="translate(188.916016 0)"/>
      </g>
      <!-- interpolation -->
      <g style="fill: #262626" transform="translate(488.837233 543.9395) scale(0.1 -0.1)">
       <defs>
        <path id="ArialMT-6c" d="M 409 0 
L 409 4581 
L 972 4581 
L 972 0 
L 409 0 
z
" transform="scale(0.015625)"/>
       </defs>
       <use xlink:href="#ArialMT-69"/>
       <use xlink:href="#ArialMT-6e" transform="translate(22.216797 0)"/>
       <use xlink:href="#ArialMT-74" transform="translate(77.832031 0)"/>
       <use xlink:href="#ArialMT-65" transform="translate(105.615234 0)"/>
       <use xlink:href="#ArialMT-72" transform="translate(161.230469 0)"/>
       <use xlink:href="#ArialMT-70" transform="translate(194.53125 0)"/>
       <use xlink:href="#ArialMT-6f" transform="translate(250.146484 0)"/>
       <use xlink:href="#ArialMT-6c" transform="translate(305.761719 0)"/>
       <use xlink:href="#ArialMT-61" transform="translate(327.978516 0)"/>
       <use xlink:href="#ArialMT-74" transform="translate(383.59375 0)"/>
       <use xlink:href="#ArialMT-69" transform="translate(411.376953 0)"/>
       <use xlink:href="#ArialMT-6f" transform="translate(433.59375 0)"/>
       <use xlink:href="#ArialMT-6e" transform="translate(489.208984 0)"/>
      </g>
     </g>
    </g>
    <g id="xtick_5">
     <g id="line2d_9">
      <path d="M 644.370416 522.587625 
L 644.370416 34.803375 
" clip-path="url(#pa4d2562dcf)" style="fill: none; stroke: #cccccc; stroke-opacity: 0.3; stroke-width: 0.8; stroke-linecap: round"/>
     </g>
     <g id="line2d_10"/>
     <g id="text_5">
      <!-- fibonacci -->
      <g style="fill: #262626" transform="translate(624.637604 533.245437) scale(0.1 -0.1)">
       <defs>
        <path id="ArialMT-62" d="M 941 0 
L 419 0 
L 419 4581 
L 981 4581 
L 981 2947 
Q 1338 3394 1891 3394 
Q 2197 3394 2470 3270 
Q 2744 3147 2920 2923 
Q 3097 2700 3197 2384 
Q 3297 2069 3297 1709 
Q 3297 856 2875 390 
Q 2453 -75 1863 -75 
Q 1275 -75 941 416 
L 941 0 
z
M 934 1684 
Q 934 1088 1097 822 
Q 1363 388 1816 388 
Q 2184 388 2453 708 
Q 2722 1028 2722 1663 
Q 2722 2313 2464 2622 
Q 2206 2931 1841 2931 
Q 1472 2931 1203 2611 
Q 934 2291 934 1684 
z
" transform="scale(0.015625)"/>
       </defs>
       <use xlink:href="#ArialMT-66"/>
       <use xlink:href="#ArialMT-69" transform="translate(27.783203 0)"/>
       <use xlink:href="#ArialMT-62" transform="translate(50 0)"/>
       <use xlink:href="#ArialMT-6f" transform="translate(105.615234 0)"/>
       <use xlink:href="#ArialMT-6e" transform="translate(161.230469 0)"/>
       <use xlink:href="#ArialMT-61" transform="translate(216.845703 0)"/>
       <use xlink:href="#ArialMT-63" transform="translate(272.460938 0)"/>
       <use xlink:href="#ArialMT-63" transform="translate(322.460938 0)"/>
       <use xlink:href="#ArialMT-69" transform="translate(372.460938 0)"/>
      </g>
      <!-- recursive -->
      <g style="fill: #262626" transform="translate(624.088385 543.822312) scale(0.1 -0.1)">
       <defs>
        <path id="ArialMT-76" d="M 1344 0 
L 81 3319 
L 675 3319 
L 1388 1331 
Q 1503 1009 1600 663 
Q 1675 925 1809 1294 
L 2547 3319 
L 3125 3319 
L 1869 0 
L 1344 0 
z
" transform="scale(0.015625)"/>
       </defs>
       <use xlink:href="#ArialMT-72"/>
       <use xlink:href="#ArialMT-65" transform="translate(33.300781 0)"/>
       <use xlink:href="#ArialMT-63" transform="translate(88.916016 0)"/>
       <use xlink:href="#ArialMT-75" transform="translate(138.916016 0)"/>
       <use xlink:href="#ArialMT-72" transform="translate(194.53125 0)"/>
       <use xlink:href="#ArialMT-73" transform="translate(227.832031 0)"/>
       <use xlink:href="#ArialMT-69" transform="translate(277.832031 0)"/>
       <use xlink:href="#ArialMT-76" transform="translate(300.048828 0)"/>
       <use xlink:href="#ArialMT-65" transform="translate(350.048828 0)"/>
      </g>
     </g>
    </g>
    <g id="xtick_6">
     <g id="line2d_11">
      <path d="M 772.664536 522.587625 
L 772.664536 34.803375 
" clip-path="url(#pa4d2562dcf)" style="fill: none; stroke: #cccccc; stroke-opacity: 0.3; stroke-width: 0.8; stroke-linecap: round"/>
     </g>
     <g id="line2d_12"/>
     <g id="text_6">
      <!-- fibonacci -->
      <g style="fill: #262626" transform="translate(752.931724 533.245437) scale(0.1 -0.1)">
       <use xlink:href="#ArialMT-66"/>
       <use xlink:href="#ArialMT-69" transform="translate(27.783203 0)"/>
       <use xlink:href="#ArialMT-62" transform="translate(50 0)"/>
       <use xlink:href="#ArialMT-6f" transform="translate(105.615234 0)"/>
       <use xlink:href="#ArialMT-6e" transform="translate(161.230469 0)"/>
       <use xlink:href="#ArialMT-61" transform="translate(216.845703 0)"/>
       <use xlink:href="#ArialMT-63" transform="translate(272.460938 0)"/>
       <use xlink:href="#ArialMT-63" transform="translate(322.460938 0)"/>
       <use xlink:href="#ArialMT-69" transform="translate(372.460938 0)"/>
      </g>
      <!-- iterative -->
      <g style="fill: #262626" transform="translate(755.158286 543.822312) scale(0.1 -0.1)">
       <use xlink:href="#ArialMT-69"/>
       <use xlink:href="#ArialMT-74" transform="translate(22.216797 0)"/>
       <use xlink:href="#ArialMT-65" transform="translate(50 0)"/>
       <use xlink:href="#ArialMT-72" transform="translate(105.615234 0)"/>
       <use xlink:href="#ArialMT-61" transform="translate(138.916016 0)"/>
       <use xlink:href="#ArialMT-74" transform="translate(194.53125 0)"/>
       <use xlink:href="#ArialMT-69" transform="translate(222.314453 0)"/>
       <use xlink:href="#ArialMT-76" transform="translate(244.53125 0)"/>
       <use xlink:href="#ArialMT-65" transform="translate(294.53125 0)"/>
      </g>
     </g>
    </g>
    <g id="xtick_7">
     <g id="line2d_13">
      <path d="M 900.958656 522.587625 
L 900.958656 34.803375 
" clip-path="url(#pa4d2562dcf)" style="fill: none; stroke: #cccccc; stroke-opacity: 0.3; stroke-width: 0.8; stroke-linecap: round"/>
     </g>
     <g id="line2d_14"/>
     <g id="text_7">
      <!-- string -->
      <g style="fill: #262626" transform="translate(888.732875 533.245437) scale(0.1 -0.1)">
       <use xlink:href="#ArialMT-73"/>
       <use xlink:href="#ArialMT-74" transform="translate(50 0)"/>
       <use xlink:href="#ArialMT-72" transform="translate(77.783203 0)"/>
       <use xlink:href="#ArialMT-69" transform="translate(111.083984 0)"/>
       <use xlink:href="#ArialMT-6e" transform="translate(133.300781 0)"/>
       <use xlink:href="#ArialMT-67" transform="translate(188.916016 0)"/>
      </g>
      <!-- manipulation -->
      <g style="fill: #262626" transform="translate(872.608656 543.9395) scale(0.1 -0.1)">
       <use xlink:href="#ArialMT-6d"/>
       <use xlink:href="#ArialMT-61" transform="translate(83.300781 0)"/>
       <use xlink:href="#ArialMT-6e" transform="translate(138.916016 0)"/>
       <use xlink:href="#ArialMT-69" transform="translate(194.53125 0)"/>
       <use xlink:href="#ArialMT-70" transform="translate(216.748047 0)"/>
       <use xlink:href="#ArialMT-75" transform="translate(272.363281 0)"/>
       <use xlink:href="#ArialMT-6c" transform="translate(327.978516 0)"/>
       <use xlink:href="#ArialMT-61" transform="translate(350.195312 0)"/>
       <use xlink:href="#ArialMT-74" transform="translate(405.810547 0)"/>
       <use xlink:href="#ArialMT-69" transform="translate(433.59375 0)"/>
       <use xlink:href="#ArialMT-6f" transform="translate(455.810547 0)"/>
       <use xlink:href="#ArialMT-6e" transform="translate(511.425781 0)"/>
      </g>
     </g>
    </g>
    <g id="text_8">
     <!-- Benchmark -->
     <g style="fill: #262626" transform="translate(490.789577 557.084812) scale(0.1 -0.1)">
      <defs>
       <path id="ArialMT-42" d="M 469 0 
L 469 4581 
L 2188 4581 
Q 2713 4581 3030 4442 
Q 3347 4303 3526 4014 
Q 3706 3725 3706 3409 
Q 3706 3116 3547 2856 
Q 3388 2597 3066 2438 
Q 3481 2316 3704 2022 
Q 3928 1728 3928 1328 
Q 3928 1006 3792 729 
Q 3656 453 3456 303 
Q 3256 153 2954 76 
Q 2653 0 2216 0 
L 469 0 
z
M 1075 2656 
L 2066 2656 
Q 2469 2656 2644 2709 
Q 2875 2778 2992 2937 
Q 3109 3097 3109 3338 
Q 3109 3566 3000 3739 
Q 2891 3913 2687 3977 
Q 2484 4041 1991 4041 
L 1075 4041 
L 1075 2656 
z
M 1075 541 
L 2216 541 
Q 2509 541 2628 563 
Q 2838 600 2978 687 
Q 3119 775 3209 942 
Q 3300 1109 3300 1328 
Q 3300 1584 3169 1773 
Q 3038 1963 2805 2039 
Q 2572 2116 2134 2116 
L 1075 2116 
L 1075 541 
z
" transform="scale(0.015625)"/>
       <path id="ArialMT-6b" d="M 425 0 
L 425 4581 
L 988 4581 
L 988 1969 
L 2319 3319 
L 3047 3319 
L 1778 2088 
L 3175 0 
L 2481 0 
L 1384 1697 
L 988 1316 
L 988 0 
L 425 0 
z
" transform="scale(0.015625)"/>
      </defs>
      <use xlink:href="#ArialMT-42"/>
      <use xlink:href="#ArialMT-65" transform="translate(66.699219 0)"/>
      <use xlink:href="#ArialMT-6e" transform="translate(122.314453 0)"/>
      <use xlink:href="#ArialMT-63" transform="translate(177.929688 0)"/>
      <use xlink:href="#ArialMT-68" transform="translate(227.929688 0)"/>
      <use xlink:href="#ArialMT-6d" transform="translate(283.544922 0)"/>
      <use xlink:href="#ArialMT-61" transform="translate(366.845703 0)"/>
      <use xlink:href="#ArialMT-72" transform="translate(422.460938 0)"/>
      <use xlink:href="#ArialMT-6b" transform="translate(455.761719 0)"/>
     </g>
    </g>
   </g>
   <g id="matplotlib.axis_2">
    <g id="ytick_1">
     <g id="line2d_15">
      <path d="M 39.784375 500.415614 
L 992.368217 500.415614 
" clip-path="url(#pa4d2562dcf)" style="fill: none; stroke: #cccccc; stroke-opacity: 0.3; stroke-width: 0.8; stroke-linecap: round"/>
     </g>
     <g id="line2d_16"/>
     <g id="text_9">
      <!-- $\mathdefault{10^{0}}$ -->
      <g style="fill: #262626" transform="translate(20.584375 505.571864) scale(0.1 -0.1)">
       <defs>
        <path id="ArialMT-31" d="M 2384 0 
L 1822 0 
L 1822 3584 
Q 1619 3391 1289 3197 
Q 959 3003 697 2906 
L 697 3450 
Q 1169 3672 1522 3987 
Q 1875 4303 2022 4600 
L 2384 4600 
L 2384 0 
z
" transform="scale(0.015625)"/>
        <path id="ArialMT-30" d="M 266 2259 
Q 266 3072 433 3567 
Q 600 4063 929 4331 
Q 1259 4600 1759 4600 
Q 2128 4600 2406 4451 
Q 2684 4303 2865 4023 
Q 3047 3744 3150 3342 
Q 3253 2941 3253 2259 
Q 3253 1453 3087 958 
Q 2922 463 2592 192 
Q 2263 -78 1759 -78 
Q 1097 -78 719 397 
Q 266 969 266 2259 
z
M 844 2259 
Q 844 1131 1108 757 
Q 1372 384 1759 384 
Q 2147 384 2411 759 
Q 2675 1134 2675 2259 
Q 2675 3391 2411 3762 
Q 2147 4134 1753 4134 
Q 1366 4134 1134 3806 
Q 844 3388 844 2259 
z
" transform="scale(0.015625)"/>
       </defs>
       <use xlink:href="#ArialMT-31" transform="translate(0 0.99375)"/>
       <use xlink:href="#ArialMT-30" transform="translate(55.615234 0.99375)"/>
       <use xlink:href="#ArialMT-30" transform="translate(112.972813 70.6875) scale(0.7)"/>
      </g>
     </g>
    </g>
    <g id="ytick_2">
     <g id="line2d_17">
      <path d="M 39.784375 152.657456 
L 992.368217 152.657456 
" clip-path="url(#pa4d2562dcf)" style="fill: none; stroke: #cccccc; stroke-opacity: 0.3; stroke-width: 0.8; stroke-linecap: round"/>
     </g>
     <g id="line2d_18"/>
     <g id="text_10">
      <!-- $\mathdefault{10^{1}}$ -->
      <g style="fill: #262626" transform="translate(20.584375 157.813706) scale(0.1 -0.1)">
       <use xlink:href="#ArialMT-31" transform="translate(0 0.99375)"/>
       <use xlink:href="#ArialMT-30" transform="translate(55.615234 0.99375)"/>
       <use xlink:href="#ArialMT-31" transform="translate(112.972813 70.6875) scale(0.7)"/>
      </g>
     </g>
    </g>
    <g id="ytick_3">
     <g id="line2d_19"/>
    </g>
    <g id="ytick_4">
     <g id="line2d_20"/>
    </g>
    <g id="ytick_5">
     <g id="line2d_21"/>
    </g>
    <g id="ytick_6">
     <g id="line2d_22"/>
    </g>
    <g id="ytick_7">
     <g id="line2d_23"/>
    </g>
    <g id="ytick_8">
     <g id="line2d_24"/>
    </g>
    <g id="ytick_9">
     <g id="line2d_25"/>
    </g>
    <g id="ytick_10">
     <g id="line2d_26"/>
    </g>
    <g id="ytick_11">
     <g id="line2d_27"/>
    </g>
    <g id="ytick_12">
     <g id="line2d_28"/>
    </g>
    <g id="text_11">
     <!-- Relative Performance (1x = fastest) -->
     <g style="fill: #262626" transform="translate(14.479688 357.194719) rotate(-90) scale(0.1 -0.1)">
      <defs>
       <path id="ArialMT-52" d="M 503 0 
L 503 4581 
L 2534 4581 
Q 3147 4581 3465 4457 
Q 3784 4334 3975 4021 
Q 4166 3709 4166 3331 
Q 4166 2844 3850 2509 
Q 3534 2175 2875 2084 
Q 3116 1969 3241 1856 
Q 3506 1613 3744 1247 
L 4541 0 
L 3778 0 
L 3172 953 
Q 2906 1366 2734 1584 
Q 2563 1803 2427 1890 
Q 2291 1978 2150 2013 
Q 2047 2034 1813 2034 
L 1109 2034 
L 1109 0 
L 503 0 
z
M 1109 2559 
L 2413 2559 
Q 2828 2559 3062 2645 
Q 3297 2731 3419 2920 
Q 3541 3109 3541 3331 
Q 3541 3656 3305 3865 
Q 3069 4075 2559 4075 
L 1109 4075 
L 1109 2559 
z
" transform="scale(0.015625)"/>
       <path id="ArialMT-20" transform="scale(0.015625)"/>
       <path id="ArialMT-50" d="M 494 0 
L 494 4581 
L 2222 4581 
Q 2678 4581 2919 4538 
Q 3256 4481 3484 4323 
Q 3713 4166 3852 3881 
Q 3991 3597 3991 3256 
Q 3991 2672 3619 2267 
Q 3247 1863 2275 1863 
L 1100 1863 
L 1100 0 
L 494 0 
z
M 1100 2403 
L 2284 2403 
Q 2872 2403 3119 2622 
Q 3366 2841 3366 3238 
Q 3366 3525 3220 3729 
Q 3075 3934 2838 4000 
Q 2684 4041 2272 4041 
L 1100 4041 
L 1100 2403 
z
" transform="scale(0.015625)"/>
       <path id="ArialMT-28" d="M 1497 -1347 
Q 1031 -759 709 28 
Q 388 816 388 1659 
Q 388 2403 628 3084 
Q 909 3875 1497 4659 
L 1900 4659 
Q 1522 4009 1400 3731 
Q 1209 3300 1100 2831 
Q 966 2247 966 1656 
Q 966 153 1900 -1347 
L 1497 -1347 
z
" transform="scale(0.015625)"/>
       <path id="ArialMT-78" d="M 47 0 
L 1259 1725 
L 138 3319 
L 841 3319 
L 1350 2541 
Q 1494 2319 1581 2169 
Q 1719 2375 1834 2534 
L 2394 3319 
L 3066 3319 
L 1919 1756 
L 3153 0 
L 2463 0 
L 1781 1031 
L 1600 1309 
L 728 0 
L 47 0 
z
" transform="scale(0.015625)"/>
       <path id="ArialMT-3d" d="M 3381 2694 
L 356 2694 
L 356 3219 
L 3381 3219 
L 3381 2694 
z
M 3381 1303 
L 356 1303 
L 356 1828 
L 3381 1828 
L 3381 1303 
z
" transform="scale(0.015625)"/>
       <path id="ArialMT-29" d="M 791 -1347 
L 388 -1347 
Q 1322 153 1322 1656 
Q 1322 2244 1188 2822 
Q 1081 3291 891 3722 
Q 769 4003 388 4659 
L 791 4659 
Q 1378 3875 1659 3084 
Q 1900 2403 1900 1659 
Q 1900 816 1576 28 
Q 1253 -759 791 -1347 
z
" transform="scale(0.015625)"/>
      </defs>
      <use xlink:href="#ArialMT-52"/>
      <use xlink:href="#ArialMT-65" transform="translate(72.216797 0)"/>
      <use xlink:href="#ArialMT-6c" transform="translate(127.832031 0)"/>
      <use xlink:href="#ArialMT-61" transform="translate(150.048828 0)"/>
      <use xlink:href="#ArialMT-74" transform="translate(205.664062 0)"/>
      <use xlink:href="#ArialMT-69" transform="translate(233.447266 0)"/>
      <use xlink:href="#ArialMT-76" transform="translate(255.664062 0)"/>
      <use xlink:href="#ArialMT-65" transform="translate(305.664062 0)"/>
      <use xlink:href="#ArialMT-20" transform="translate(361.279297 0)"/>
      <use xlink:href="#ArialMT-50" transform="translate(389.0625 0)"/>
      <use xlink:href="#ArialMT-65" transform="translate(455.761719 0)"/>
      <use xlink:href="#ArialMT-72" transform="translate(511.376953 0)"/>
      <use xlink:href="#ArialMT-66" transform="translate(544.677734 0)"/>
      <use xlink:href="#ArialMT-6f" transform="translate(572.460938 0)"/>
      <use xlink:href="#ArialMT-72" transform="translate(628.076172 0)"/>
      <use xlink:href="#ArialMT-6d" transform="translate(661.376953 0)"/>
      <use xlink:href="#ArialMT-61" transform="translate(744.677734 0)"/>
      <use xlink:href="#ArialMT-6e" transform="translate(800.292969 0)"/>
      <use xlink:href="#ArialMT-63" transform="translate(855.908203 0)"/>
      <use xlink:href="#ArialMT-65" transform="translate(905.908203 0)"/>
      <use xlink:href="#ArialMT-20" transform="translate(961.523438 0)"/>
      <use xlink:href="#ArialMT-28" transform="translate(989.306641 0)"/>
      <use xlink:href="#ArialMT-31" transform="translate(1022.607422 0)"/>
      <use xlink:href="#ArialMT-78" transform="translate(1078.222656 0)"/>
      <use xlink:href="#ArialMT-20" transform="translate(1128.222656 0)"/>
      <use xlink:href="#ArialMT-3d" transform="translate(1156.005859 0)"/>
      <use xlink:href="#ArialMT-20" transform="translate(1214.404297 0)"/>
      <use xlink:href="#ArialMT-66" transform="translate(1242.1875 0)"/>
      <use xlink:href="#ArialMT-61" transform="translate(1269.970703 0)"/>
      <use xlink:href="#ArialMT-73" transform="translate(1325.585938 0)"/>
      <use xlink:href="#ArialMT-74" transform="translate(1375.585938 0)"/>
      <use xlink:href="#ArialMT-65" transform="translate(1403.369141 0)"/>
      <use xlink:href="#ArialMT-73" transform="translate(1458.984375 0)"/>
      <use xlink:href="#ArialMT-74" transform="translate(1508.984375 0)"/>
      <use xlink:href="#ArialMT-29" transform="translate(1536.767578 0)"/>
     </g>
    </g>
   </g>
   <g id="patch_3">
    <path d="M 83.083641 348258.573685 
L 115.157171 348258.573685 
L 115.157171 500.415614 
L 83.083641 500.415614 
z
" clip-path="url(#pa4d2562dcf)" style="fill: #27ae60; opacity: 0.8"/>
   </g>
   <g id="patch_4">
    <path d="M 211.377761 348258.573685 
L 243.451291 348258.573685 
L 243.451291 192.583925 
L 211.377761 192.583925 
z
" clip-path="url(#pa4d2562dcf)" style="fill: #27ae60; opacity: 0.8"/>
   </g>
   <g id="patch_5">
    <path d="M 339.671881 348258.573685 
L 371.745411 348258.573685 
L 371.745411 500.415614 
L 339.671881 500.415614 
z
" clip-path="url(#pa4d2562dcf)" style="fill: #27ae60; opacity: 0.8"/>
   </g>
   <g id="patch_6">
    <path d="M 467.966001 348258.573685 
L 500.039531 348258.573685 
L 500.039531 500.415614 
L 467.966001 500.415614 
z
" clip-path="url(#pa4d2562dcf)" style="fill: #27ae60; opacity: 0.8"/>
   </g>
   <g id="patch_7">
    <path d="M 596.260121 348258.573685 
L 628.333651 348258.573685 
L 628.333651 176.881239 
L 596.260121 176.881239 
z
" clip-path="url(#pa4d2562dcf)" style="fill: #27ae60; opacity: 0.8"/>
   </g>
   <g id="patch_8">
    <path d="M 724.554241 348258.573685 
L 756.627771 348258.573685 
L 756.627771 500.415614 
L 724.554241 500.415614 
z
" clip-path="url(#pa4d2562dcf)" style="fill: #27ae60; opacity: 0.8"/>
   </g>
   <g id="patch_9">
    <path d="M 852.848361 348258.573685 
L 884.921891 348258.573685 
L 884.921891 500.415614 
L 852.848361 500.415614 
z
" clip-path="url(#pa4d2562dcf)" style="fill: #27ae60; opacity: 0.8"/>
   </g>
   <g id="patch_10">
    <path d="M 115.157171 348258.573685 
L 147.230701 348258.573685 
L 147.230701 369.587388 
L 115.157171 369.587388 
z
" clip-path="url(#pa4d2562dcf)" style="fill: #f1c40f; opacity: 0.8"/>
   </g>
   <g id="patch_11">
    <path d="M 243.451291 348258.573685 
L 275.524821 348258.573685 
L 275.524821 489.969201 
L 243.451291 489.969201 
z
" clip-path="url(#pa4d2562dcf)" style="fill: #f1c40f; opacity: 0.8"/>
   </g>
   <g id="patch_12">
    <path d="M 371.745411 348258.573685 
L 403.818941 348258.573685 
L 403.818941 217.392647 
L 371.745411 217.392647 
z
" clip-path="url(#pa4d2562dcf)" style="fill: #f1c40f; opacity: 0.8"/>
   </g>
   <g id="patch_13">
    <path d="M 500.039531 348258.573685 
L 532.113061 348258.573685 
L 532.113061 456.463063 
L 500.039531 456.463063 
z
" clip-path="url(#pa4d2562dcf)" style="fill: #f1c40f; opacity: 0.8"/>
   </g>
   <g id="patch_14">
    <path d="M 628.333651 348258.573685 
L 660.407181 348258.573685 
L 660.407181 500.415614 
L 628.333651 500.415614 
z
" clip-path="url(#pa4d2562dcf)" style="fill: #f1c40f; opacity: 0.8"/>
   </g>
   <g id="patch_15">
    <path d="M 756.627771 348258.573685 
L 788.701301 348258.573685 
L 788.701301 56.975386 
L 756.627771 56.975386 
z
" clip-path="url(#pa4d2562dcf)" style="fill: #f1c40f; opacity: 0.8"/>
   </g>
   <g id="patch_16">
    <path d="M 884.921891 348258.573685 
L 916.995421 348258.573685 
L 916.995421 274.754402 
L 884.921891 274.754402 
z
" clip-path="url(#pa4d2562dcf)" style="fill: #f1c40f; opacity: 0.8"/>
   </g>
   <g id="patch_17">
    <path d="M 147.230701 348258.573685 
L 179.304231 348258.573685 
L 179.304231 405.945445 
L 147.230701 405.945445 
z
" clip-path="url(#pa4d2562dcf)" style="fill: #3498db; opacity: 0.8"/>
   </g>
   <g id="patch_18">
    <path d="M 275.524821 348258.573685 
L 307.598351 348258.573685 
L 307.598351 500.415614 
L 275.524821 500.415614 
z
" clip-path="url(#pa4d2562dcf)" style="fill: #3498db; opacity: 0.8"/>
   </g>
   <g id="patch_19">
    <path d="M 403.818941 348258.573685 
L 435.892471 348258.573685 
L 435.892471 244.387355 
L 403.818941 244.387355 
z
" clip-path="url(#pa4d2562dcf)" style="fill: #3498db; opacity: 0.8"/>
   </g>
   <g id="patch_20">
    <path d="M 532.113061 348258.573685 
L 564.186591 348258.573685 
L 564.186591 450.033852 
L 532.113061 450.033852 
z
" clip-path="url(#pa4d2562dcf)" style="fill: #3498db; opacity: 0.8"/>
   </g>
   <g id="patch_21">
    <path d="M 660.407181 348258.573685 
L 692.480711 348258.573685 
L 692.480711 304.016132 
L 660.407181 304.016132 
z
" clip-path="url(#pa4d2562dcf)" style="fill: #3498db; opacity: 0.8"/>
   </g>
   <g id="patch_22">
    <path d="M 788.701301 348258.573685 
L 820.774831 348258.573685 
L 820.774831 132.030805 
L 788.701301 132.030805 
z
" clip-path="url(#pa4d2562dcf)" style="fill: #3498db; opacity: 0.8"/>
   </g>
   <g id="patch_23">
    <path d="M 916.995421 348258.573685 
L 949.068951 348258.573685 
L 949.068951 331.625234 
L 916.995421 331.625234 
z
" clip-path="url(#pa4d2562dcf)" style="fill: #3498db; opacity: 0.8"/>
   </g>
   <g id="line2d_29">
    <path d="M 39.784375 500.415614 
L 992.368217 500.415614 
" clip-path="url(#pa4d2562dcf)" style="fill: none; stroke-dasharray: 5.55,2.4; stroke-dashoffset: 0; stroke: #000000; stroke-opacity: 0.5; stroke-width: 1.5"/>
   </g>
   <g id="patch_24">
    <path d="M 39.784375 522.587625 
L 39.784375 34.803375 
" style="fill: none; stroke: #cccccc; stroke-linejoin: miter; stroke-linecap: square"/>
   </g>
   <g id="patch_25">
    <path d="M 992.368217 522.587625 
L 992.368217 34.803375 
" style="fill: none; stroke: #cccccc; stroke-linejoin: miter; stroke-linecap: square"/>
   </g>
   <g id="patch_26">
    <path d="M 39.784375 522.587625 
L 992.368217 522.587625 
" style="fill: none; stroke: #cccccc; stroke-linejoin: miter; stroke-linecap: square"/>
   </g>
   <g id="patch_27">
    <path d="M 39.784375 34.803375 
L 992.368217 34.803375 
" style="fill: none; stroke: #cccccc; stroke-linejoin: miter; stroke-linecap: square"/>
   </g>
   <g id="text_12">
    <!-- 1.0x -->
    <g style="fill: #262626" transform="translate(89.389937 484.047532) scale(0.1 -0.1)">
     <defs>
      <path id="Arial-BoldMT-31" d="M 2519 0 
L 1641 0 
L 1641 3309 
Q 1159 2859 506 2644 
L 506 3441 
Q 850 3553 1253 3867 
Q 1656 4181 1806 4600 
L 2519 4600 
L 2519 0 
z
" transform="scale(0.015625)"/>
      <path id="Arial-BoldMT-2e" d="M 459 0 
L 459 878 
L 1338 878 
L 1338 0 
L 459 0 
z
" transform="scale(0.015625)"/>
      <path id="Arial-BoldMT-30" d="M 1756 4600 
Q 2422 4600 2797 4125 
Q 3244 3563 3244 2259 
Q 3244 959 2794 391 
Q 2422 -78 1756 -78 
Q 1088 -78 678 436 
Q 269 950 269 2269 
Q 269 3563 719 4131 
Q 1091 4600 1756 4600 
z
M 1756 3872 
Q 1597 3872 1472 3770 
Q 1347 3669 1278 3406 
Q 1188 3066 1188 2259 
Q 1188 1453 1269 1151 
Q 1350 850 1473 750 
Q 1597 650 1756 650 
Q 1916 650 2041 751 
Q 2166 853 2234 1116 
Q 2325 1453 2325 2259 
Q 2325 3066 2244 3367 
Q 2163 3669 2039 3770 
Q 1916 3872 1756 3872 
z
" transform="scale(0.015625)"/>
      <path id="Arial-BoldMT-78" d="M 38 0 
L 1234 1709 
L 88 3319 
L 1159 3319 
L 1747 2406 
L 2366 3319 
L 3397 3319 
L 2272 1747 
L 3500 0 
L 2422 0 
L 1747 1028 
L 1066 0 
L 38 0 
z
" transform="scale(0.015625)"/>
     </defs>
     <use xlink:href="#Arial-BoldMT-31"/>
     <use xlink:href="#Arial-BoldMT-2e" transform="translate(55.615234 0)"/>
     <use xlink:href="#Arial-BoldMT-30" transform="translate(83.398438 0)"/>
     <use xlink:href="#Arial-BoldMT-78" transform="translate(139.013672 0)"/>
    </g>
   </g>
   <g id="text_13">
    <!-- 7.7x -->
    <g style="fill: #262626" transform="translate(217.684057 188.655881) scale(0.1 -0.1)">
     <defs>
      <path id="Arial-BoldMT-37" d="M 272 3703 
L 272 4519 
L 3275 4519 
L 3275 3881 
Q 2903 3516 2518 2831 
Q 2134 2147 1932 1376 
Q 1731 606 1734 0 
L 888 0 
Q 909 950 1279 1937 
Q 1650 2925 2269 3703 
L 272 3703 
z
" transform="scale(0.015625)"/>
     </defs>
     <use xlink:href="#Arial-BoldMT-37"/>
     <use xlink:href="#Arial-BoldMT-2e" transform="translate(55.615234 0)"/>
     <use xlink:href="#Arial-BoldMT-37" transform="translate(83.398438 0)"/>
     <use xlink:href="#Arial-BoldMT-78" transform="translate(139.013672 0)"/>
    </g>
   </g>
   <g id="text_14">
    <!-- 1.0x -->
    <g style="fill: #262626" transform="translate(345.978177 484.047532) scale(0.1 -0.1)">
     <use xlink:href="#Arial-BoldMT-31"/>
     <use xlink:href="#Arial-BoldMT-2e" transform="translate(55.615234 0)"/>
     <use xlink:href="#Arial-BoldMT-30" transform="translate(83.398438 0)"/>
     <use xlink:href="#Arial-BoldMT-78" transform="translate(139.013672 0)"/>
    </g>
   </g>
   <g id="text_15">
    <!-- 1.0x -->
    <g style="fill: #262626" transform="translate(474.272297 484.047532) scale(0.1 -0.1)">
     <use xlink:href="#Arial-BoldMT-31"/>
     <use xlink:href="#Arial-BoldMT-2e" transform="translate(55.615234 0)"/>
     <use xlink:href="#Arial-BoldMT-30" transform="translate(83.398438 0)"/>
     <use xlink:href="#Arial-BoldMT-78" transform="translate(139.013672 0)"/>
    </g>
   </g>
   <g id="text_16">
    <!-- 8.5x -->
    <g style="fill: #262626" transform="translate(602.566417 173.145088) scale(0.1 -0.1)">
     <defs>
      <path id="Arial-BoldMT-38" d="M 1025 2472 
Q 684 2616 529 2867 
Q 375 3119 375 3419 
Q 375 3931 733 4265 
Q 1091 4600 1750 4600 
Q 2403 4600 2764 4265 
Q 3125 3931 3125 3419 
Q 3125 3100 2959 2851 
Q 2794 2603 2494 2472 
Q 2875 2319 3073 2025 
Q 3272 1731 3272 1347 
Q 3272 713 2867 316 
Q 2463 -81 1791 -81 
Q 1166 -81 750 247 
Q 259 634 259 1309 
Q 259 1681 443 1992 
Q 628 2303 1025 2472 
z
M 1206 3356 
Q 1206 3094 1354 2947 
Q 1503 2800 1750 2800 
Q 2000 2800 2150 2948 
Q 2300 3097 2300 3359 
Q 2300 3606 2151 3754 
Q 2003 3903 1759 3903 
Q 1506 3903 1356 3753 
Q 1206 3603 1206 3356 
z
M 1125 1394 
Q 1125 1031 1311 828 
Q 1497 625 1775 625 
Q 2047 625 2225 820 
Q 2403 1016 2403 1384 
Q 2403 1706 2222 1901 
Q 2041 2097 1763 2097 
Q 1441 2097 1283 1875 
Q 1125 1653 1125 1394 
z
" transform="scale(0.015625)"/>
      <path id="Arial-BoldMT-35" d="M 284 1178 
L 1159 1269 
Q 1197 972 1381 798 
Q 1566 625 1806 625 
Q 2081 625 2272 848 
Q 2463 1072 2463 1522 
Q 2463 1944 2273 2155 
Q 2084 2366 1781 2366 
Q 1403 2366 1103 2031 
L 391 2134 
L 841 4519 
L 3163 4519 
L 3163 3697 
L 1506 3697 
L 1369 2919 
Q 1663 3066 1969 3066 
Q 2553 3066 2959 2641 
Q 3366 2216 3366 1538 
Q 3366 972 3038 528 
Q 2591 -78 1797 -78 
Q 1163 -78 763 262 
Q 363 603 284 1178 
z
" transform="scale(0.015625)"/>
     </defs>
     <use xlink:href="#Arial-BoldMT-38"/>
     <use xlink:href="#Arial-BoldMT-2e" transform="translate(55.615234 0)"/>
     <use xlink:href="#Arial-BoldMT-35" transform="translate(83.398438 0)"/>
     <use xlink:href="#Arial-BoldMT-78" transform="translate(139.013672 0)"/>
    </g>
   </g>
   <g id="text_17">
    <!-- 1.0x -->
    <g style="fill: #262626" transform="translate(730.860537 484.047532) scale(0.1 -0.1)">
     <use xlink:href="#Arial-BoldMT-31"/>
     <use xlink:href="#Arial-BoldMT-2e" transform="translate(55.615234 0)"/>
     <use xlink:href="#Arial-BoldMT-30" transform="translate(83.398438 0)"/>
     <use xlink:href="#Arial-BoldMT-78" transform="translate(139.013672 0)"/>
    </g>
   </g>
   <g id="text_18">
    <!-- 1.0x -->
    <g style="fill: #262626" transform="translate(859.154657 484.047532) scale(0.1 -0.1)">
     <use xlink:href="#Arial-BoldMT-31"/>
     <use xlink:href="#Arial-BoldMT-2e" transform="translate(55.615234 0)"/>
     <use xlink:href="#Arial-BoldMT-30" transform="translate(83.398438 0)"/>
     <use xlink:href="#Arial-BoldMT-78" transform="translate(139.013672 0)"/>
    </g>
   </g>
   <g id="text_19">
    <!-- 2.4x -->
    <g style="fill: #262626" transform="translate(121.463467 361.392646) scale(0.1 -0.1)">
     <defs>
      <path id="Arial-BoldMT-32" d="M 3238 816 
L 3238 0 
L 159 0 
Q 209 463 459 877 
Q 709 1291 1447 1975 
Q 2041 2528 2175 2725 
Q 2356 2997 2356 3263 
Q 2356 3556 2198 3714 
Q 2041 3872 1763 3872 
Q 1488 3872 1325 3706 
Q 1163 3541 1138 3156 
L 263 3244 
Q 341 3969 753 4284 
Q 1166 4600 1784 4600 
Q 2463 4600 2850 4234 
Q 3238 3869 3238 3325 
Q 3238 3016 3127 2736 
Q 3016 2456 2775 2150 
Q 2616 1947 2200 1565 
Q 1784 1184 1673 1059 
Q 1563 934 1494 816 
L 3238 816 
z
" transform="scale(0.015625)"/>
      <path id="Arial-BoldMT-34" d="M 1994 0 
L 1994 922 
L 119 922 
L 119 1691 
L 2106 4600 
L 2844 4600 
L 2844 1694 
L 3413 1694 
L 3413 922 
L 2844 922 
L 2844 0 
L 1994 0 
z
M 1994 1694 
L 1994 3259 
L 941 1694 
L 1994 1694 
z
" transform="scale(0.015625)"/>
     </defs>
     <use xlink:href="#Arial-BoldMT-32"/>
     <use xlink:href="#Arial-BoldMT-2e" transform="translate(55.615234 0)"/>
     <use xlink:href="#Arial-BoldMT-34" transform="translate(83.398438 0)"/>
     <use xlink:href="#Arial-BoldMT-78" transform="translate(139.013672 0)"/>
    </g>
   </g>
   <g id="text_20">
    <!-- 1.1x -->
    <g style="fill: #262626" transform="translate(249.757587 474.521493) scale(0.1 -0.1)">
     <use xlink:href="#Arial-BoldMT-31"/>
     <use xlink:href="#Arial-BoldMT-2e" transform="translate(55.615234 0)"/>
     <use xlink:href="#Arial-BoldMT-31" transform="translate(83.398438 0)"/>
     <use xlink:href="#Arial-BoldMT-78" transform="translate(139.013672 0)"/>
    </g>
   </g>
   <g id="text_21">
    <!-- 6.5x -->
    <g style="fill: #262626" transform="translate(378.051707 213.118301) scale(0.1 -0.1)">
     <defs>
      <path id="Arial-BoldMT-36" d="M 3247 3459 
L 2397 3366 
Q 2366 3628 2234 3753 
Q 2103 3878 1894 3878 
Q 1616 3878 1423 3628 
Q 1231 3378 1181 2588 
Q 1509 2975 1997 2975 
Q 2547 2975 2939 2556 
Q 3331 2138 3331 1475 
Q 3331 772 2918 347 
Q 2506 -78 1859 -78 
Q 1166 -78 719 461 
Q 272 1000 272 2228 
Q 272 3488 737 4044 
Q 1203 4600 1947 4600 
Q 2469 4600 2811 4308 
Q 3153 4016 3247 3459 
z
M 1256 1544 
Q 1256 1116 1453 883 
Q 1650 650 1903 650 
Q 2147 650 2309 840 
Q 2472 1031 2472 1466 
Q 2472 1913 2297 2120 
Q 2122 2328 1859 2328 
Q 1606 2328 1431 2129 
Q 1256 1931 1256 1544 
z
" transform="scale(0.015625)"/>
     </defs>
     <use xlink:href="#Arial-BoldMT-36"/>
     <use xlink:href="#Arial-BoldMT-2e" transform="translate(55.615234 0)"/>
     <use xlink:href="#Arial-BoldMT-35" transform="translate(83.398438 0)"/>
     <use xlink:href="#Arial-BoldMT-78" transform="translate(139.013672 0)"/>
    </g>
   </g>
   <g id="text_22">
    <!-- 1.3x -->
    <g style="fill: #262626" transform="translate(506.345827 443.60219) scale(0.1 -0.1)">
     <defs>
      <path id="Arial-BoldMT-33" d="M 241 1216 
L 1091 1319 
Q 1131 994 1309 822 
Q 1488 650 1741 650 
Q 2013 650 2198 856 
Q 2384 1063 2384 1413 
Q 2384 1744 2206 1937 
Q 2028 2131 1772 2131 
Q 1603 2131 1369 2066 
L 1466 2781 
Q 1822 2772 2009 2936 
Q 2197 3100 2197 3372 
Q 2197 3603 2059 3740 
Q 1922 3878 1694 3878 
Q 1469 3878 1309 3722 
Q 1150 3566 1116 3266 
L 306 3403 
Q 391 3819 561 4067 
Q 731 4316 1036 4458 
Q 1341 4600 1719 4600 
Q 2366 4600 2756 4188 
Q 3078 3850 3078 3425 
Q 3078 2822 2419 2463 
Q 2813 2378 3048 2084 
Q 3284 1791 3284 1375 
Q 3284 772 2843 347 
Q 2403 -78 1747 -78 
Q 1125 -78 715 280 
Q 306 638 241 1216 
z
" transform="scale(0.015625)"/>
     </defs>
     <use xlink:href="#Arial-BoldMT-31"/>
     <use xlink:href="#Arial-BoldMT-2e" transform="translate(55.615234 0)"/>
     <use xlink:href="#Arial-BoldMT-33" transform="translate(83.398438 0)"/>
     <use xlink:href="#Arial-BoldMT-78" transform="translate(139.013672 0)"/>
    </g>
   </g>
   <g id="text_23">
    <!-- 1.0x -->
    <g style="fill: #262626" transform="translate(634.639947 484.047532) scale(0.1 -0.1)">
     <use xlink:href="#Arial-BoldMT-31"/>
     <use xlink:href="#Arial-BoldMT-2e" transform="translate(55.615234 0)"/>
     <use xlink:href="#Arial-BoldMT-30" transform="translate(83.398438 0)"/>
     <use xlink:href="#Arial-BoldMT-78" transform="translate(139.013672 0)"/>
    </g>
   </g>
   <g id="text_24">
    <!-- 18.8x -->
    <g style="fill: #262626" transform="translate(760.153599 54.202534) scale(0.1 -0.1)">
     <use xlink:href="#Arial-BoldMT-31"/>
     <use xlink:href="#Arial-BoldMT-38" transform="translate(55.615234 0)"/>
     <use xlink:href="#Arial-BoldMT-2e" transform="translate(111.230469 0)"/>
     <use xlink:href="#Arial-BoldMT-38" transform="translate(139.013672 0)"/>
     <use xlink:href="#Arial-BoldMT-78" transform="translate(194.628906 0)"/>
    </g>
   </g>
   <g id="text_25">
    <!-- 4.5x -->
    <g style="fill: #262626" transform="translate(891.228187 269.428762) scale(0.1 -0.1)">
     <use xlink:href="#Arial-BoldMT-34"/>
     <use xlink:href="#Arial-BoldMT-2e" transform="translate(55.615234 0)"/>
     <use xlink:href="#Arial-BoldMT-35" transform="translate(83.398438 0)"/>
     <use xlink:href="#Arial-BoldMT-78" transform="translate(139.013672 0)"/>
    </g>
   </g>
   <g id="text_26">
    <!-- 1.9x -->
    <g style="fill: #262626" transform="translate(153.536997 396.100813) scale(0.1 -0.1)">
     <defs>
      <path id="Arial-BoldMT-39" d="M 291 1059 
L 1141 1153 
Q 1172 894 1303 769 
Q 1434 644 1650 644 
Q 1922 644 2112 894 
Q 2303 1144 2356 1931 
Q 2025 1547 1528 1547 
Q 988 1547 595 1964 
Q 203 2381 203 3050 
Q 203 3747 617 4173 
Q 1031 4600 1672 4600 
Q 2369 4600 2816 4061 
Q 3263 3522 3263 2288 
Q 3263 1031 2797 475 
Q 2331 -81 1584 -81 
Q 1047 -81 715 205 
Q 384 491 291 1059 
z
M 2278 2978 
Q 2278 3403 2083 3637 
Q 1888 3872 1631 3872 
Q 1388 3872 1227 3680 
Q 1066 3488 1066 3050 
Q 1066 2606 1241 2398 
Q 1416 2191 1678 2191 
Q 1931 2191 2104 2391 
Q 2278 2591 2278 2978 
z
" transform="scale(0.015625)"/>
     </defs>
     <use xlink:href="#Arial-BoldMT-31"/>
     <use xlink:href="#Arial-BoldMT-2e" transform="translate(55.615234 0)"/>
     <use xlink:href="#Arial-BoldMT-39" transform="translate(83.398438 0)"/>
     <use xlink:href="#Arial-BoldMT-78" transform="translate(139.013672 0)"/>
    </g>
   </g>
   <g id="text_27">
    <!-- 1.0x -->
    <g style="fill: #262626" transform="translate(281.831117 484.047532) scale(0.1 -0.1)">
     <use xlink:href="#Arial-BoldMT-31"/>
     <use xlink:href="#Arial-BoldMT-2e" transform="translate(55.615234 0)"/>
     <use xlink:href="#Arial-BoldMT-30" transform="translate(83.398438 0)"/>
     <use xlink:href="#Arial-BoldMT-78" transform="translate(139.013672 0)"/>
    </g>
   </g>
   <g id="text_28">
    <!-- 5.4x -->
    <g style="fill: #262626" transform="translate(410.125237 239.666777) scale(0.1 -0.1)">
     <use xlink:href="#Arial-BoldMT-35"/>
     <use xlink:href="#Arial-BoldMT-2e" transform="translate(55.615234 0)"/>
     <use xlink:href="#Arial-BoldMT-34" transform="translate(83.398438 0)"/>
     <use xlink:href="#Arial-BoldMT-78" transform="translate(139.013672 0)"/>
    </g>
   </g>
   <g id="text_29">
    <!-- 1.4x -->
    <g style="fill: #262626" transform="translate(538.419357 437.61139) scale(0.1 -0.1)">
     <use xlink:href="#Arial-BoldMT-31"/>
     <use xlink:href="#Arial-BoldMT-2e" transform="translate(55.615234 0)"/>
     <use xlink:href="#Arial-BoldMT-34" transform="translate(83.398438 0)"/>
     <use xlink:href="#Arial-BoldMT-78" transform="translate(139.013672 0)"/>
    </g>
   </g>
   <g id="text_30">
    <!-- 3.7x -->
    <g style="fill: #262626" transform="translate(666.713477 297.983374) scale(0.1 -0.1)">
     <use xlink:href="#Arial-BoldMT-33"/>
     <use xlink:href="#Arial-BoldMT-2e" transform="translate(55.615234 0)"/>
     <use xlink:href="#Arial-BoldMT-37" transform="translate(83.398438 0)"/>
     <use xlink:href="#Arial-BoldMT-78" transform="translate(139.013672 0)"/>
    </g>
   </g>
   <g id="text_31">
    <!-- 11.5x -->
    <g style="fill: #262626" transform="translate(792.502129 128.745587) scale(0.1 -0.1)">
     <use xlink:href="#Arial-BoldMT-31"/>
     <use xlink:href="#Arial-BoldMT-31" transform="translate(50.115234 0)"/>
     <use xlink:href="#Arial-BoldMT-2e" transform="translate(105.730469 0)"/>
     <use xlink:href="#Arial-BoldMT-35" transform="translate(133.513672 0)"/>
     <use xlink:href="#Arial-BoldMT-78" transform="translate(189.128906 0)"/>
    </g>
   </g>
   <g id="text_32">
    <!-- 3.1x -->
    <g style="fill: #262626" transform="translate(923.301717 324.791225) scale(0.1 -0.1)">
     <use xlink:href="#Arial-BoldMT-33"/>
     <use xlink:href="#Arial-BoldMT-2e" transform="translate(55.615234 0)"/>
     <use xlink:href="#Arial-BoldMT-31" transform="translate(83.398438 0)"/>
     <use xlink:href="#Arial-BoldMT-78" transform="translate(139.013672 0)"/>
    </g>
   </g>
   <g id="text_33">
    <!-- Relative Performance Comparison -->
    <g style="fill: #262626" transform="translate(424.376608 15.935625) scale(0.12 -0.12)">
     <defs>
      <path id="ArialMT-43" d="M 3763 1606 
L 4369 1453 
Q 4178 706 3683 314 
Q 3188 -78 2472 -78 
Q 1731 -78 1267 223 
Q 803 525 561 1097 
Q 319 1669 319 2325 
Q 319 3041 592 3573 
Q 866 4106 1370 4382 
Q 1875 4659 2481 4659 
Q 3169 4659 3637 4309 
Q 4106 3959 4291 3325 
L 3694 3184 
Q 3534 3684 3231 3912 
Q 2928 4141 2469 4141 
Q 1941 4141 1586 3887 
Q 1231 3634 1087 3207 
Q 944 2781 944 2328 
Q 944 1744 1114 1308 
Q 1284 872 1643 656 
Q 2003 441 2422 441 
Q 2931 441 3284 734 
Q 3638 1028 3763 1606 
z
" transform="scale(0.015625)"/>
     </defs>
     <use xlink:href="#ArialMT-52"/>
     <use xlink:href="#ArialMT-65" transform="translate(72.216797 0)"/>
     <use xlink:href="#ArialMT-6c" transform="translate(127.832031 0)"/>
     <use xlink:href="#ArialMT-61" transform="translate(150.048828 0)"/>
     <use xlink:href="#ArialMT-74" transform="translate(205.664062 0)"/>
     <use xlink:href="#ArialMT-69" transform="translate(233.447266 0)"/>
     <use xlink:href="#ArialMT-76" transform="translate(255.664062 0)"/>
     <use xlink:href="#ArialMT-65" transform="translate(305.664062 0)"/>
     <use xlink:href="#ArialMT-20" transform="translate(361.279297 0)"/>
     <use xlink:href="#ArialMT-50" transform="translate(389.0625 0)"/>
     <use xlink:href="#ArialMT-65" transform="translate(455.761719 0)"/>
     <use xlink:href="#ArialMT-72" transform="translate(511.376953 0)"/>
     <use xlink:href="#ArialMT-66" transform="translate(544.677734 0)"/>
     <use xlink:href="#ArialMT-6f" transform="translate(572.460938 0)"/>
     <use xlink:href="#ArialMT-72" transform="translate(628.076172 0)"/>
     <use xlink:href="#ArialMT-6d" transform="translate(661.376953 0)"/>
     <use xlink:href="#ArialMT-61" transform="translate(744.677734 0)"/>
     <use xlink:href="#ArialMT-6e" transform="translate(800.292969 0)"/>
     <use xlink:href="#ArialMT-63" transform="translate(855.908203 0)"/>
     <use xlink:href="#ArialMT-65" transform="translate(905.908203 0)"/>
     <use xlink:href="#ArialMT-20" transform="translate(961.523438 0)"/>
     <use xlink:href="#ArialMT-43" transform="translate(989.306641 0)"/>
     <use xlink:href="#ArialMT-6f" transform="translate(1061.523438 0)"/>
     <use xlink:href="#ArialMT-6d" transform="translate(1117.138672 0)"/>
     <use xlink:href="#ArialMT-70" transform="translate(1200.439453 0)"/>
     <use xlink:href="#ArialMT-61" transform="translate(1256.054688 0)"/>
     <use xlink:href="#ArialMT-72" transform="translate(1311.669922 0)"/>
     <use xlink:href="#ArialMT-69" transform="translate(1344.970703 0)"/>
     <use xlink:href="#ArialMT-73" transform="translate(1367.1875 0)"/>
     <use xlink:href="#ArialMT-6f" transform="translate(1417.1875 0)"/>
     <use xlink:href="#ArialMT-6e" transform="translate(1472.802734 0)"/>
    </g>
    <!-- (Lower is Better, 1x = Fastest Implementation) -->
    <g style="fill: #262626" transform="translate(393.530983 28.803375) scale(0.12 -0.12)">
     <defs>
      <path id="ArialMT-4c" d="M 469 0 
L 469 4581 
L 1075 4581 
L 1075 541 
L 3331 541 
L 3331 0 
L 469 0 
z
" transform="scale(0.015625)"/>
      <path id="ArialMT-77" d="M 1034 0 
L 19 3319 
L 600 3319 
L 1128 1403 
L 1325 691 
Q 1338 744 1497 1375 
L 2025 3319 
L 2603 3319 
L 3100 1394 
L 3266 759 
L 3456 1400 
L 4025 3319 
L 4572 3319 
L 3534 0 
L 2950 0 
L 2422 1988 
L 2294 2553 
L 1622 0 
L 1034 0 
z
" transform="scale(0.015625)"/>
      <path id="ArialMT-2c" d="M 569 0 
L 569 641 
L 1209 641 
L 1209 0 
Q 1209 -353 1084 -570 
Q 959 -788 688 -906 
L 531 -666 
Q 709 -588 793 -436 
Q 878 -284 888 0 
L 569 0 
z
" transform="scale(0.015625)"/>
      <path id="ArialMT-46" d="M 525 0 
L 525 4581 
L 3616 4581 
L 3616 4041 
L 1131 4041 
L 1131 2622 
L 3281 2622 
L 3281 2081 
L 1131 2081 
L 1131 0 
L 525 0 
z
" transform="scale(0.015625)"/>
      <path id="ArialMT-49" d="M 597 0 
L 597 4581 
L 1203 4581 
L 1203 0 
L 597 0 
z
" transform="scale(0.015625)"/>
     </defs>
     <use xlink:href="#ArialMT-28"/>
     <use xlink:href="#ArialMT-4c" transform="translate(33.300781 0)"/>
     <use xlink:href="#ArialMT-6f" transform="translate(88.916016 0)"/>
     <use xlink:href="#ArialMT-77" transform="translate(144.53125 0)"/>
     <use xlink:href="#ArialMT-65" transform="translate(216.748047 0)"/>
     <use xlink:href="#ArialMT-72" transform="translate(272.363281 0)"/>
     <use xlink:href="#ArialMT-20" transform="translate(305.664062 0)"/>
     <use xlink:href="#ArialMT-69" transform="translate(333.447266 0)"/>
     <use xlink:href="#ArialMT-73" transform="translate(355.664062 0)"/>
     <use xlink:href="#ArialMT-20" transform="translate(405.664062 0)"/>
     <use xlink:href="#ArialMT-42" transform="translate(433.447266 0)"/>
     <use xlink:href="#ArialMT-65" transform="translate(500.146484 0)"/>
     <use xlink:href="#ArialMT-74" transform="translate(555.761719 0)"/>
     <use xlink:href="#ArialMT-74" transform="translate(583.544922 0)"/>
     <use xlink:href="#ArialMT-65" transform="translate(611.328125 0)"/>
     <use xlink:href="#ArialMT-72" transform="translate(666.943359 0)"/>
     <use xlink:href="#ArialMT-2c" transform="translate(694.744141 0)"/>
     <use xlink:href="#ArialMT-20" transform="translate(722.527344 0)"/>
     <use xlink:href="#ArialMT-31" transform="translate(750.310547 0)"/>
     <use xlink:href="#ArialMT-78" transform="translate(805.925781 0)"/>
     <use xlink:href="#ArialMT-20" transform="translate(855.925781 0)"/>
     <use xlink:href="#ArialMT-3d" transform="translate(883.708984 0)"/>
     <use xlink:href="#ArialMT-20" transform="translate(942.107422 0)"/>
     <use xlink:href="#ArialMT-46" transform="translate(969.890625 0)"/>
     <use xlink:href="#ArialMT-61" transform="translate(1030.974609 0)"/>
     <use xlink:href="#ArialMT-73" transform="translate(1086.589844 0)"/>
     <use xlink:href="#ArialMT-74" transform="translate(1136.589844 0)"/>
     <use xlink:href="#ArialMT-65" transform="translate(1164.373047 0)"/>
     <use xlink:href="#ArialMT-73" transform="translate(1219.988281 0)"/>
     <use xlink:href="#ArialMT-74" transform="translate(1269.988281 0)"/>
     <use xlink:href="#ArialMT-20" transform="translate(1297.771484 0)"/>
     <use xlink:href="#ArialMT-49" transform="translate(1325.554688 0)"/>
     <use xlink:href="#ArialMT-6d" transform="translate(1353.337891 0)"/>
     <use xlink:href="#ArialMT-70" transform="translate(1436.638672 0)"/>
     <use xlink:href="#ArialMT-6c" transform="translate(1492.253906 0)"/>
     <use xlink:href="#ArialMT-65" transform="translate(1514.470703 0)"/>
     <use xlink:href="#ArialMT-6d" transform="translate(1570.085938 0)"/>
     <use xlink:href="#ArialMT-65" transform="translate(1653.386719 0)"/>
     <use xlink:href="#ArialMT-6e" transform="translate(1709.001953 0)"/>
     <use xlink:href="#ArialMT-74" transform="translate(1764.617188 0)"/>
     <use xlink:href="#ArialMT-61" transform="translate(1792.400391 0)"/>
     <use xlink:href="#ArialMT-74" transform="translate(1848.015625 0)"/>
     <use xlink:href="#ArialMT-69" transform="translate(1875.798828 0)"/>
     <use xlink:href="#ArialMT-6f" transform="translate(1898.015625 0)"/>
     <use xlink:href="#ArialMT-6e" transform="translate(1953.630859 0)"/>
     <use xlink:href="#ArialMT-29" transform="translate(2009.246094 0)"/>
    </g>
   </g>
   <g id="legend_1">
    <g id="patch_28">
     <path d="M 907.019779 51.083062 
L 927.019779 51.083062 
L 927.019779 44.083062 
L 907.019779 44.083062 
z
" style="fill: #27ae60; opacity: 0.8"/>
    </g>
    <g id="text_34">
     <!-- NaijaScript -->
     <g style="fill: #262626" transform="translate(935.019779 51.083062) scale(0.1 -0.1)">
      <defs>
       <path id="ArialMT-4e" d="M 488 0 
L 488 4581 
L 1109 4581 
L 3516 984 
L 3516 4581 
L 4097 4581 
L 4097 0 
L 3475 0 
L 1069 3600 
L 1069 0 
L 488 0 
z
" transform="scale(0.015625)"/>
       <path id="ArialMT-6a" d="M 419 3928 
L 419 4581 
L 981 4581 
L 981 3928 
L 419 3928 
z
M -294 -1288 
L -188 -809 
Q -19 -853 78 -853 
Q 250 -853 334 -739 
Q 419 -625 419 -169 
L 419 3319 
L 981 3319 
L 981 -181 
Q 981 -794 822 -1034 
Q 619 -1347 147 -1347 
Q -81 -1347 -294 -1288 
z
" transform="scale(0.015625)"/>
       <path id="ArialMT-53" d="M 288 1472 
L 859 1522 
Q 900 1178 1048 958 
Q 1197 738 1509 602 
Q 1822 466 2213 466 
Q 2559 466 2825 569 
Q 3091 672 3220 851 
Q 3350 1031 3350 1244 
Q 3350 1459 3225 1620 
Q 3100 1781 2813 1891 
Q 2628 1963 1997 2114 
Q 1366 2266 1113 2400 
Q 784 2572 623 2826 
Q 463 3081 463 3397 
Q 463 3744 659 4045 
Q 856 4347 1234 4503 
Q 1613 4659 2075 4659 
Q 2584 4659 2973 4495 
Q 3363 4331 3572 4012 
Q 3781 3694 3797 3291 
L 3216 3247 
Q 3169 3681 2898 3903 
Q 2628 4125 2100 4125 
Q 1550 4125 1298 3923 
Q 1047 3722 1047 3438 
Q 1047 3191 1225 3031 
Q 1400 2872 2139 2705 
Q 2878 2538 3153 2413 
Q 3553 2228 3743 1945 
Q 3934 1663 3934 1294 
Q 3934 928 3725 604 
Q 3516 281 3123 101 
Q 2731 -78 2241 -78 
Q 1619 -78 1198 103 
Q 778 284 539 648 
Q 300 1013 288 1472 
z
" transform="scale(0.015625)"/>
      </defs>
      <use xlink:href="#ArialMT-4e"/>
      <use xlink:href="#ArialMT-61" transform="translate(72.216797 0)"/>
      <use xlink:href="#ArialMT-69" transform="translate(127.832031 0)"/>
      <use xlink:href="#ArialMT-6a" transform="translate(150.048828 0)"/>
      <use xlink:href="#ArialMT-61" transform="translate(172.265625 0)"/>
      <use xlink:href="#ArialMT-53" transform="translate(227.880859 0)"/>
      <use xlink:href="#ArialMT-63" transform="translate(294.580078 0)"/>
      <use xlink:href="#ArialMT-72" transform="translate(344.580078 0)"/>
      <use xlink:href="#ArialMT-69" transform="translate(377.880859 0)"/>
      <use xlink:href="#ArialMT-70" transform="translate(400.097656 0)"/>
      <use xlink:href="#ArialMT-74" transform="translate(455.712891 0)"/>
     </g>
    </g>
    <g id="patch_29">
     <path d="M 907.019779 65.467437 
L 927.019779 65.467437 
L 927.019779 58.467437 
L 907.019779 58.467437 
z
" style="fill: #f1c40f; opacity: 0.8"/>
    </g>
    <g id="text_35">
     <!-- JavaScript -->
     <g style="fill: #262626" transform="translate(935.019779 65.467437) scale(0.1 -0.1)">
      <defs>
       <path id="ArialMT-4a" d="M 184 1300 
L 731 1375 
Q 753 850 928 656 
Q 1103 463 1413 463 
Q 1641 463 1806 567 
Q 1972 672 2034 851 
Q 2097 1031 2097 1425 
L 2097 4581 
L 2703 4581 
L 2703 1459 
Q 2703 884 2564 568 
Q 2425 253 2123 87 
Q 1822 -78 1416 -78 
Q 813 -78 492 269 
Q 172 616 184 1300 
z
" transform="scale(0.015625)"/>
      </defs>
      <use xlink:href="#ArialMT-4a"/>
      <use xlink:href="#ArialMT-61" transform="translate(50 0)"/>
      <use xlink:href="#ArialMT-76" transform="translate(105.615234 0)"/>
      <use xlink:href="#ArialMT-61" transform="translate(155.615234 0)"/>
      <use xlink:href="#ArialMT-53" transform="translate(211.230469 0)"/>
      <use xlink:href="#ArialMT-63" transform="translate(277.929688 0)"/>
      <use xlink:href="#ArialMT-72" transform="translate(327.929688 0)"/>
      <use xlink:href="#ArialMT-69" transform="translate(361.230469 0)"/>
      <use xlink:href="#ArialMT-70" transform="translate(383.447266 0)"/>
      <use xlink:href="#ArialMT-74" transform="translate(439.0625 0)"/>
     </g>
    </g>
    <g id="patch_30">
     <path d="M 907.019779 79.61275 
L 927.019779 79.61275 
L 927.019779 72.61275 
L 907.019779 72.61275 
z
" style="fill: #3498db; opacity: 0.8"/>
    </g>
    <g id="text_36">
     <!-- Python -->
     <g style="fill: #262626" transform="translate(935.019779 79.61275) scale(0.1 -0.1)">
      <defs>
       <path id="ArialMT-79" d="M 397 -1278 
L 334 -750 
Q 519 -800 656 -800 
Q 844 -800 956 -737 
Q 1069 -675 1141 -563 
Q 1194 -478 1313 -144 
Q 1328 -97 1363 -6 
L 103 3319 
L 709 3319 
L 1400 1397 
Q 1534 1031 1641 628 
Q 1738 1016 1872 1384 
L 2581 3319 
L 3144 3319 
L 1881 -56 
Q 1678 -603 1566 -809 
Q 1416 -1088 1222 -1217 
Q 1028 -1347 759 -1347 
Q 597 -1347 397 -1278 
z
" transform="scale(0.015625)"/>
      </defs>
      <use xlink:href="#ArialMT-50"/>
      <use xlink:href="#ArialMT-79" transform="translate(66.699219 0)"/>
      <use xlink:href="#ArialMT-74" transform="translate(116.699219 0)"/>
      <use xlink:href="#ArialMT-68" transform="translate(144.482422 0)"/>
      <use xlink:href="#ArialMT-6f" transform="translate(200.097656 0)"/>
      <use xlink:href="#ArialMT-6e" transform="translate(255.712891 0)"/>
     </g>
    </g>
   </g>
  </g>
 </g>
 <defs>
  <clipPath id="pa4d2562dcf">
   <rect x="39.784375" y="34.803375" width="952.583842" height="487.78425"/>
  </clipPath>
 </defs>
</svg>
